# xmcd
#
# Track frame offsets: 
#        150
#        6737
#        30997
#        48625
#        70510
#        91610
#        114990
#        128775
#        150875
#        165285
#
# Disc length: 2325 seconds
#
# Revision: 4
# Processed by: cddbd v1.5.1PL0 Copyright (c) Steve Scherf et al.
# Submitted via: ExactAudioCopy v0.95a4
#
DISCID=6709130a
DTITLE=looper - up a tree
DYEAR=1900
DGENRE=
TTITLE0=the treehouse
TTITLE1=impossible things #2
TTITLE2=burning flies
TTITLE3=festival '95
TTITLE4=ballad of ray suzuki
TTITLE5=dave the moon man
TTITLE6=quiet and small
TTITLE7=columbo's car
TTITLE8=up a tree again
TTITLE9=back to the treehouse
EXTD=
EXTT0=
EXTT1=
EXTT2=
EXTT3=
EXTT4=
EXTT5=
EXTT6=
EXTT7=
EXTT8=
EXTT9=
PLAYORDER=
